<svg width="14" height="14" viewBox="0 0 14 14" fill="none" xmlns="http://www.w3.org/2000/svg">
<path d="M0.5 4.5V9.5C0.5 11.7091 2.29086 13.5 4.5 13.5H9.5C11.7091 13.5 13.5 11.7091 13.5 9.5V4.5C13.5 2.29086 11.7091 0.5 9.5 0.5H4.5C2.29086 0.5 0.5 2.29086 0.5 4.5Z" stroke="black" stroke-linecap="round"/>
<mask id="path-2-inside-1_1970_66425" fill="white">
<path d="M7.00001 0.999991V13L9.99999 13C11.6568 13 13 11.6569 13 10L13 3.99999C13 2.34314 11.6568 0.999996 9.99999 0.999994L7.00001 0.999991Z"/>
</mask>
<path d="M7.00001 13H9.18674e-06V20L7.00002 20L7.00001 13ZM7.00001 0.999991L7.00002 -6.00001L9.18674e-06 -6.00002V0.999991H7.00001ZM9.99999 13L9.99999 6.00001L9.99999 6.00001L9.99999 13ZM13 10L5.99999 10L5.99999 10L13 10ZM13 3.99999L5.99999 3.99999L5.99999 4L13 3.99999ZM9.99999 0.999994L9.99998 7.99999L9.99998 7.99999L9.99999 0.999994ZM14 13V0.999991H9.18674e-06V13H14ZM7.00002 20L10 20L9.99999 6.00001L7 6.00001L7.00002 20ZM20 10L20 3.99999L5.99999 4L5.99999 10L20 10ZM10 -6.00001L7.00002 -6.00001L7 7.99999L9.99998 7.99999L10 -6.00001ZM20 3.99999C20 -1.52285 15.5228 -6 10 -6.00001L9.99998 7.99999C7.79084 7.99999 5.99999 6.20913 5.99999 3.99999L20 3.99999ZM10 20C15.5229 20 20 15.5228 20 10L5.99999 10C5.99999 7.79087 7.79084 6.00001 9.99999 6.00001L10 20Z" fill="black" mask="url(#path-2-inside-1_1970_66425)"/>
</svg>
