<svg width="12" height="10" viewBox="0 0 12 10" fill="none" xmlns="http://www.w3.org/2000/svg">
<path fill-rule="evenodd" clip-rule="evenodd" d="M8.00007 2C8.00007 0.895431 8.8955 0 10.0001 0C11.1046 0 12.0001 0.895431 12.0001 2C12.0001 3.10457 11.1046 4 10.0001 4C8.8955 4 8.00007 3.10457 8.00007 2ZM10.0001 3C9.44778 3 9.00007 2.55228 9.00007 2C9.00007 1.44772 9.44778 1 10.0001 1C10.5524 1 11.0001 1.44772 11.0001 2C11.0001 2.55228 10.5524 3 10.0001 3Z" fill="black"/>
<path d="M5.9944 6.44118C5.6728 4.32368 4.44818 3.03125 3.00007 3.03125C1.55196 3.03125 0.327335 4.32368 0.00573786 6.44118C-0.035726 6.71419 0.151981 6.96912 0.424992 7.01059C0.698004 7.05205 0.952937 6.86434 0.994401 6.59133C1.27727 4.72883 2.25041 4.03125 3.00007 4.03125C3.74973 4.03125 4.72287 4.72883 5.00574 6.59133C5.32734 8.70883 6.55196 10.0013 8.00007 10.0013C9.44818 10.0013 10.6728 8.70883 10.9944 6.59133C11.0359 6.31832 10.8482 6.06339 10.5751 6.02192C10.3021 5.98046 10.0472 6.16817 10.0057 6.44118C9.72287 8.30367 8.74973 9.00125 8.00007 9.00125C7.25041 9.00125 6.27727 8.30367 5.9944 6.44118Z" fill="black"/>
</svg>
